<svg xmlns="http://www.w3.org/2000/svg" viewBox="0 0 300 400" width="300" height="400">
  <defs>
    <linearGradient id="g" x1="0" y1="0" x2="1" y2="0">
      <stop offset="0%" stop-color="#C850FF"/><stop offset="100%" stop-color="#C850FF" stop-opacity="0"/>
    </linearGradient>
    <clipPath id="c"><rect width="300" height="400" rx="12"/></clipPath>
  </defs>
  <rect width="300" height="400" rx="12" fill="#0a0a0a"/>
  <g clip-path="url(#c)">
    <line x1="-60" y1="0" x2="240" y2="400" stroke="#C850FF" stroke-width="1" opacity="0.07"/>
<line x1="-30" y1="0" x2="270" y2="400" stroke="#C850FF" stroke-width="1" opacity="0.07"/>
<line x1="0" y1="0" x2="300" y2="400" stroke="#C850FF" stroke-width="1" opacity="0.07"/>
<line x1="30" y1="0" x2="330" y2="400" stroke="#C850FF" stroke-width="1" opacity="0.07"/>
<line x1="60" y1="0" x2="360" y2="400" stroke="#C850FF" stroke-width="1" opacity="0.07"/>
<line x1="90" y1="0" x2="390" y2="400" stroke="#C850FF" stroke-width="1" opacity="0.07"/>
<line x1="120" y1="0" x2="420" y2="400" stroke="#C850FF" stroke-width="1" opacity="0.07"/>
<line x1="150" y1="0" x2="450" y2="400" stroke="#C850FF" stroke-width="1" opacity="0.07"/>
<line x1="180" y1="0" x2="480" y2="400" stroke="#C850FF" stroke-width="1" opacity="0.07"/>
<line x1="210" y1="0" x2="510" y2="400" stroke="#C850FF" stroke-width="1" opacity="0.07"/>
<line x1="240" y1="0" x2="540" y2="400" stroke="#C850FF" stroke-width="1" opacity="0.07"/>
<line x1="270" y1="0" x2="570" y2="400" stroke="#C850FF" stroke-width="1" opacity="0.07"/>
<line x1="300" y1="0" x2="600" y2="400" stroke="#C850FF" stroke-width="1" opacity="0.07"/>
<line x1="330" y1="0" x2="630" y2="400" stroke="#C850FF" stroke-width="1" opacity="0.07"/>
    <text x="155" y="230" font-family="Arial Black,sans-serif" font-size="200" font-weight="900"
      fill="#C850FF" opacity="0.05" text-anchor="middle" dominant-baseline="middle">SV</text>
    <circle cx="150" cy="128" r="46" fill="#C850FF" opacity="0.09"/>
    <circle cx="150" cy="128" r="46" fill="none" stroke="#C850FF" stroke-width="1.5" opacity="0.22"/>
    <path d="M88 262 Q88 194 150 184 Q212 194 212 262 L232 312 L68 312 Z" fill="#C850FF" opacity="0.07"/>
    <path d="M88 262 Q88 194 150 184 Q212 194 212 262 L232 312 L68 312 Z" fill="none" stroke="#C850FF" stroke-width="1.5" opacity="0.18"/>
    <rect x="0" y="0" width="300" height="3" fill="url(#g)"/>
    <rect x="0" y="0" width="3" height="400" fill="#C850FF" opacity="0.55"/>
    <rect x="0" y="0" width="56" height="22" fill="#C850FF" opacity="0.13"/>
    <text x="8" y="15" font-family="monospace" font-size="10" fill="#C850FF" font-weight="700">LVL 9</text>
    <rect x="0" y="330" width="300" height="70" fill="#000" opacity="0.58"/>
    <text x="20" y="370" font-family="Arial Black,Impact,sans-serif" font-size="46" font-weight="900" fill="#fff" letter-spacing="-1">svN--</text>
    <text x="20" y="390" font-family="monospace" font-size="10" fill="#C850FF" opacity="0.85" letter-spacing="1">ALLROUNDER</text>
    <rect x="0" y="397" width="300" height="3" fill="url(#g)"/>
  </g>
</svg>